<svg xmlns="http://www.w3.org/2000/svg">
    <symbol id="logo" viewBox="0 0 53.531 72">
        <defs>
        <style>
        .cls-1 {
            fill: #f6f6f6;
            fill-rule: evenodd;
        }
        </style>
        </defs>
        <path id="Logo" class="cls-1" d="M274.714,88.981A46.989,46.989,0,0,1,271.3,103.7c-0.623,1.416-1.756,2.767-2.279,4.3h-0.228v-1.132c0.428-.665.219-1.575,0.456-2.491,1.128-4.357,1.213-10.17-.684-13.811-3.24-6.221-9.728-4.129-16.181-6.793a12.425,12.425,0,0,1-5.7-5.434l-1.368-3.849A14.911,14.911,0,0,1,246,66.339c3.107-8.131,10.872-11.709,20.284-7.245V58.415c-0.807-1.1-.545-2.733-0.912-4.3-0.985-4.219-1.744-18.067,2.963-18.113,1.277,0.926,3.731.885,3.875,2.944a1.666,1.666,0,0,0-.456,1.358h0.228V40.075c0.981-1.03,1.25-3.371,2.963-3.623,1.368,1.22,3.683,1.463,4.1,3.623a17.49,17.49,0,0,0-2.735,5.887h0.456c1.428-1.877,7.312-7.251,10.028-6.793a14.113,14.113,0,0,1,2.051,4.3c-1.435.51-2.095,1.9-3.191,2.717-4,3-7.231,7.374-9.8,11.774h0.684c1.569-1.22,7.973-1.811,10.712-1.132,7.222,1.792,9.252,4.271,10.939,11.547a13.388,13.388,0,0,1,.228,4.755c-2.183,9.442-6.79,14.209-16.409,16.3C279.436,89.993,276.873,89.1,274.714,88.981Z" transform="translate(-245 -36)"/>
    </symbol>
    <symbol id="aboutUs" viewBox="0 0 256 256">
        <title>Group 3</title>
    <desc>Created with Sketch.</desc>
    <defs></defs>
    <g id="Page-1" stroke="none" stroke-width="1" fill="none" fill-rule="evenodd">
        <g id="Group-3">
            <g id="Group">
                <path d="M126.335686,144.492549 C132.156524,144.492549 137.706805,143.101114 142.762353,140.5888 L142.762353,156.087843 C142.762353,157.718915 143.782739,159.172191 145.328778,159.728765 L184.04933,173.558086 C191.717685,176.294576 196.873725,183.615071 196.873725,191.754968 L196.873725,202.46902 L57.7301961,202.46902 L57.7301961,191.754968 C57.7301961,183.615071 62.8862369,176.294576 70.5545914,173.558086 L109.275144,159.728765 C110.813453,159.172191 111.841569,157.718915 111.841569,156.087843 L111.841569,141.423661 C116.371464,143.371671 121.241487,144.492549 126.335686,144.492549 L126.335686,144.492549 Z M91.5498039,94.2462745 C91.5498039,93.6201286 91.6039153,93.0094431 91.6271059,92.3910275 C95.2525678,93.6046682 99.0017129,94.2462745 103.145098,94.2462745 C113.766387,94.2462745 125.408063,89.1984565 132.01738,82.2644706 C138.170616,90.837258 145.437001,94.9033412 154.674585,94.9033412 C156.707627,94.9033412 158.872082,94.6405145 161.121569,94.2462745 C161.121569,117.691959 145.514303,136.762353 126.335686,136.762353 C107.15707,136.762353 91.5498039,117.691959 91.5498039,94.2462745 L91.5498039,94.2462745 Z M126.335686,51.7301961 C143.365308,51.7301961 157.557948,66.7808878 160.518613,86.5701898 C160.472232,86.57792 160.433581,86.57792 160.3872,86.5856502 C149.155225,88.7423749 142.198049,85.0859922 135.611922,73.5448094 C134.916204,72.3234384 133.656182,71.6199906 132.179715,71.5968 C130.765089,71.6277208 129.481876,72.423931 128.824809,73.6762227 C125.261189,80.5174463 113.256195,86.5160784 103.145098,86.5160784 C99.2104282,86.5160784 95.8323325,85.866742 92.5083482,84.5062275 C96.12608,65.7450416 109.901289,51.7301961 126.335686,51.7301961 L126.335686,51.7301961 Z M67.9495153,166.276242 C57.2122729,170.110419 50,180.360659 50,191.754968 L50,206.334118 C50,208.467652 51.7315639,210.199216 53.865098,210.199216 L200.738824,210.199216 C202.872358,210.199216 204.603922,208.467652 204.603922,206.334118 L204.603922,191.754968 C204.603922,180.360659 197.391649,170.110419 186.646676,166.276242 L150.492549,153.359084 L150.492549,135.548712 C161.56992,126.465732 168.851765,111.353198 168.851765,94.2462745 C168.851765,66.5412518 149.781371,44 126.335686,44 C102.890002,44 83.8196078,66.5412518 83.8196078,94.2462745 C83.8196078,112.319473 91.9595043,128.143184 104.111373,137.001989 L104.111373,153.359084 L67.9495153,166.276242 Z" id="Fill-21" fill="#FFFFFF"></path>
            </g>
        </g>
    </g>
    </symbol>
    <symbol id="bill" viewBox="0 0 92 92">
        <g><g><path d="M48.049,34.971h-5.13c-0.708,0-1.282-0.573-1.282-1.282s0.575-1.282,1.282-1.282h5.13c0.708,0,1.282,0.573,1.282,1.282    S48.757,34.971,48.049,34.971z" fill="#fff"/></g><g><path style="" d="M71.133,40.101H45.485c-0.708,0-1.282-0.573-1.282-1.282s0.575-1.282,1.282-1.282h25.649    c0.708,0,1.282,0.573,1.282,1.282S71.841,40.101,71.133,40.101z" fill="#fff"/></g><g><path style="" d="M69.851,45.231H41.637c-0.708,0-1.282-0.573-1.282-1.282s0.575-1.282,1.282-1.282h28.214    c0.708,0,1.282,0.573,1.282,1.282S70.559,45.231,69.851,45.231z" fill="#fff"/></g><g><path style="" d="M71.133,50.361H41.637c-0.708,0-1.282-0.573-1.282-1.282c0-0.709,0.575-1.282,1.282-1.282h29.496    c0.708,0,1.282,0.573,1.282,1.282C72.416,49.787,71.841,50.361,71.133,50.361z" fill="#fff"/></g><g><path style="" d="M68.568,55.49H41.637c-0.708,0-1.282-0.573-1.282-1.282c0-0.709,0.575-1.282,1.282-1.282h26.931    c0.708,0,1.282,0.573,1.282,1.282C69.851,54.917,69.276,55.49,68.568,55.49z" fill="#fff"/></g><path style="" d="M88.536,36.722l-9.76-0.071l0.021-2.871l6.868,0.05v-4.626c0-1.534-1.248-2.781-2.781-2.781v-2.871   c3.116,0,5.653,2.535,5.653,5.653V36.722z" fill="#fff"/><path style="" d="M72.685,69.519c-1.558,0-2.473-0.632-2.965-1.162c-1.069-1.15-0.991-2.661-0.979-2.83   c-0.004-1.429-1.251-2.676-2.785-2.676v-2.871c3.116,0,5.653,2.536,5.653,5.653c-0.006,0.196,0.026,0.576,0.222,0.778   c0.19,0.198,0.57,0.238,0.855,0.238V69.519z" fill="#fff"/><path style="" d="M75.047,69.49H60.333v-3.858c0-1.011,0.266-1.96,0.732-2.781H31.951V29.204   c0-3.116,2.536-5.653,5.653-5.653h45.878v2.871c-1.534,0-2.781,1.248-2.781,2.781v34.634C80.7,66.954,78.164,69.49,75.047,69.49z    M63.204,66.619h11.843c1.534,0,2.781-1.248,2.781-2.781V29.204c0-1.01,0.266-1.96,0.732-2.781H37.604   c-1.534,0-2.781,1.248-2.781,2.781v30.776h31.163v2.871c-1.534,0-2.781,1.248-2.781,2.781V66.619z" fill="#fff"/><path style="" d="M57.551,80.077H13.109v-2.871c1.534,0,2.781-1.248,2.781-2.781v-8.793   c0-3.116,2.536-5.653,5.653-5.653h44.442v2.871c-1.534,0-2.781,1.248-2.781,2.781v8.793C63.204,77.541,60.668,80.077,57.551,80.077   z M18.029,77.206h39.522c1.534,0,2.781-1.248,2.781-2.781v-8.793c0-1.011,0.266-1.96,0.732-2.781H21.543   c-1.534,0-2.781,1.248-2.781,2.781v8.793C18.762,75.436,18.495,76.385,18.029,77.206z" fill="#fff"/></g>
    </symbol>
    <symbol id="path" viewBox="0 0 92 92">
        <g>
        <path d="M90,20.76c0.41,0,0.75-0.34,0.75-0.75v-10c0-0.41-0.34-0.75-0.75-0.75H80c-0.41,0-0.75,0.34-0.75,0.75v4.27H20.73v-4.27   c0-0.41-0.34-0.75-0.75-0.75h-10c-0.41,0-0.75,0.34-0.75,0.75v10c0,0.41,0.34,0.75,0.75,0.75h4.25v58.56H9.98   c-0.41,0-0.75,0.34-0.75,0.75v10c0,0.41,0.34,0.75,0.75,0.75h10c0.41,0,0.75-0.34,0.75-0.75V85.8h58.52v4.27   c0,0.41,0.34,0.75,0.75,0.75h10c0.41,0,0.75-0.34,0.75-0.75v-10c0-0.41-0.34-0.75-0.75-0.75h-4.25V20.76H90z M89.25,10.76v8.5h-8.5   v-4.13c0.01-0.04,0.02-0.07,0.02-0.1s-0.02-0.07-0.02-0.1v-4.17H89.25z M10.73,10.76h8.5v4.17c-0.01,0.04-0.02,0.07-0.02,0.1   s0.02,0.07,0.02,0.1v4.13h-8.5V10.76z M10.73,89.32v-8.5h8.5v4.13c-0.01,0.04-0.02,0.07-0.02,0.1s0.02,0.07,0.02,0.1v4.17H10.73z    M89.25,89.32h-8.5v-4.17c0.01-0.04,0.02-0.07,0.02-0.1s-0.02-0.07-0.02-0.1v-4.13h8.5V89.32z M84.25,79.32H80   c-0.41,0-0.75,0.34-0.75,0.75v4.23H20.73v-4.23c0-0.41-0.34-0.75-0.75-0.75h-4.25V20.76h4.25c0.41,0,0.75-0.34,0.75-0.75v-4.23   h58.52v4.23c0,0.41,0.34,0.75,0.75,0.75h4.25V79.32z"/>
        </g>
    </symbol>
    <symbol id="mobile" viewBox="9 0 92 92">
        <path d="M64,120c2.8,0,5-2.2,5-5s-2.2-5-5-5c-2.8,0-5,2.2-5,5S61.2,120,64,120z M64,112c1.7,0,3,1.3,3,3s-1.3,3-3,3  c-1.7,0-3-1.3-3-3S62.3,112,64,112z"/><path d="M92,0H36c-4.4,0-8,3.6-8,8v112c0,4.4,3.6,8,8,8h56c4.4,0,8-3.6,8-8V8C100,3.6,96.4,0,92,0z M96,120c0,2.2-1.8,4-4,4H36  c-2.2,0-4-1.8-4-4v-14h64V120z M96,104H32V16h64V104z M96,14H32V8c0-2.2,1.8-4,4-4h56c2.2,0,4,1.8,4,4V14z"/><path d="M67,8H55c-0.6,0-1,0.4-1,1s0.4,1,1,1h12c0.6,0,1-0.4,1-1S67.6,8,67,8z"/><circle cx="73" cy="9" r="1"/>
    </symbol>
    <symbol id="globe" viewBox="0 0 512.104 512.104">
        <g>
	<g>
		<g>
			<path d="M230.233,355.624c97.92,0,177.6-77.44,177.6-172.373s-79.68-172.48-177.6-172.48s-177.6,77.44-177.6,172.48
				S132.206,355.624,230.233,355.624z M230.019,31.677c86.4,0,156.693,67.947,156.693,151.467s-70.293,151.573-156.693,151.573
				S73.326,266.771,73.326,183.251S143.619,31.677,230.019,31.677z"/>
			<path d="M262.019,415.677c50.453-6.507,99.2-28.48,137.92-66.24c45.44-44.373,70.507-103.253,70.507-165.867
				c0-58.987-22.507-114.347-63.147-157.227l8.427-8.213c4.267-3.84,4.587-10.453,0.64-14.72s-10.56-4.587-14.827-0.64
				c-0.213,0.213-0.32,0.32-0.533,0.533l-29.653,28.907c-4.267,3.84-4.587,10.453-0.64,14.72c3.947,4.267,10.56,4.587,14.827,0.64
				c0.213-0.213,0.32-0.32,0.533-0.533l6.293-6.08c36.8,39.04,57.173,89.173,57.173,142.613c0,56.96-22.827,110.507-64.213,150.933
				c-82.987,80.96-216.213,83.307-301.44,7.147l5.44-5.333c3.947-4.16,3.84-10.773-0.32-14.827c-3.947-3.84-10.24-3.84-14.293-0.107
				l-29.653,28.907c-4.907,4.48-4.587,12.693,1.493,16.64c2.133,1.387,4.693,1.92,7.147,1.493c2.347-0.427,4.48-1.493,6.08-3.2
				l9.173-8.96c36.267,32.64,81.707,53.44,130.24,59.52v33.707c0.107,0.747,0.213,1.493,0.427,2.24
				c-36.693,5.12-71.36,19.413-101.013,41.6c-4.587,3.413-5.547,10.027-2.133,14.613c2.027,2.667,5.12,4.16,8.427,4.16h250.987
				c5.76,0,10.453-4.693,10.453-10.453c0-3.307-1.6-6.4-4.16-8.32c-29.44-22.08-64.107-36.373-100.587-41.6
				c0.213-0.747,0.427-1.493,0.427-2.347V415.677z M219.353,450.024v-32.64c3.413,0.107,6.827,0.427,10.24,0.427
				c3.733,0,7.36-0.32,11.093-0.533v32.64c0,0.107,0.107,0.32,0.107,0.427c-3.627-0.213-7.253-0.427-10.88-0.427
				c-3.627,0-7.04,0.213-10.56,0.427C219.246,450.344,219.353,450.13,219.353,450.024z M318.446,491.944H141.593
				C197.273,464.104,262.766,464.104,318.446,491.944z"/>
		</g>
        </g>
    </g>
    </symbol>
    <symbol id="penholder" viewBox="0 0 92 92">
        <g><g><path d="M83.485,55.789c-2.09-3.7-5.432-5.465-9.589-5.741c-1.229-0.083-2.468-0.012-3.763-0.012c0-1.295,0.007-2.445,0-3.597    c-0.015-1.882-0.245-2.158-2.087-2.533c0.011-0.093,0.007-0.192,0.04-0.276c1.737-4.611,3.469-9.224,5.242-13.82    c0.112-0.29,0.545-0.552,0.879-0.643c1.997-0.54,3.54-1.677,4.577-3.458c3.423-5.871,1.837-13.831-3.571-17.93    C73.633,6.58,71.877,5.707,69.91,5.36c-0.956-0.167-1.753,0.39-1.76,1.218c-0.003,0.466,0.193,0.981,0.435,1.394    c1.123,1.928,1.09,3.8-0.188,5.623c-0.787,1.125-1.633,2.206-2.433,3.322c-2.213,3.085-2.171,6.607,0.158,9.492    c0.383,0.475,0.281,0.796,0.037,1.241c-2.5,4.533-4.985,9.075-7.478,13.614c-0.109,0.193-0.259,0.364-0.514,0.722v-0.967    c0-11.25-0.007-22.5,0.014-33.748C58.184,6.28,57.946,5.503,57.061,5H38.558c-0.979,0.362-1.312,1.072-1.308,2.106    c0.024,8.907,0.013,17.812,0.013,26.717v10.113c-0.081,0.056-0.162,0.111-0.245,0.165c-0.225-0.25-0.52-0.462-0.664-0.75    c-2.463-4.906-4.943-9.803-7.332-14.746c-0.721-1.491-1.64-2.591-3.145-3.375c-2.869-1.494-5.634-3.19-8.444-4.799    c-0.619-0.355-1.354-0.644-1.896-0.091c-0.38,0.39-0.676,1.104-0.624,1.635c0.304,3.044,0.703,6.078,1.108,9.11    c0.151,1.134,0.241,2.324,0.656,3.368c0.666,1.673,1.584,3.249,2.389,4.869c0.758,1.524,1.508,3.052,2.274,4.602    c-1.712,0.311-2.024,0.691-2.02,2.32c0.004,1.626,0.002,3.25,0.002,4.876c0,11.498-0.002,22.998,0,34.497    c0.002,3.129,1.147,5.706,3.659,7.627c1.298,0.993,2.821,1.39,4.363,1.756h34.761c0.207-0.056,0.411-0.137,0.62-0.169    c3.808-0.564,6.945-3.668,7.227-7.497c0.229-3.107,0.136-6.24,0.174-9.362c0.017-1.303,0.004-2.605,0.004-3.98    c0.91,0,1.716,0.035,2.516-0.007c1.057-0.056,2.127-0.074,3.153-0.285C84.609,71.888,87.121,62.228,83.485,55.789z M68.5,18.47    c0.274-0.378,0.56-0.749,0.848-1.116c1.793-2.285,3.393-4.646,2.948-7.912c4.132,2.303,5.808,7.153,5.203,10.974    c-0.197,1.234-0.623,2.479-1.182,3.6c-0.951,1.904-2.686,2.626-4.759,2.213C67.498,25.42,66.078,21.812,68.5,18.47z M40.291,8.018    h14.852v5.994H48.99c-0.374,0-0.749-0.019-1.121,0.009c-1.002,0.078-1.656,0.737-1.598,1.585c0.051,0.784,0.765,1.376,1.712,1.38    c1.993,0.009,3.984,0,5.979,0h1.173v3.027c-1.243,0-2.479-0.002-3.713,0.001c-0.279,0-0.565-0.012-0.836,0.039    c-0.828,0.157-1.375,0.816-1.326,1.56c0.048,0.726,0.691,1.341,1.529,1.36c1.428,0.032,2.856,0.009,4.35,0.009v3.029h-4.543    c-0.809,0-1.618-0.009-2.427,0.003c-1.169,0.018-1.871,0.578-1.894,1.489c-0.021,0.896,0.708,1.477,1.883,1.48    c2.303,0.007,4.602,0.002,6.975,0.002v6.027c-1.153,0-2.322-0.001-3.492,0.002c-0.312,0-0.626-0.021-0.934,0.02    c-0.883,0.119-1.48,0.773-1.448,1.548c0.029,0.761,0.697,1.378,1.594,1.394c1.399,0.028,2.799,0.009,4.275,0.009v5.956H40.291    V8.018z M18.995,30.912c-0.285-2.252-0.552-4.354-0.844-6.648c2.008,1.151,3.858,2.211,5.82,3.335    C22.296,28.715,20.725,29.761,18.995,30.912z M20.004,34.589c-0.211-0.415-0.185-0.658,0.218-0.923    c1.973-1.299,3.931-2.623,5.985-3.999c2.373,4.76,4.719,9.462,7.153,14.342c-2.839,0-5.51,0.016-8.18-0.024    c-0.253-0.003-0.611-0.289-0.738-0.538C22.946,40.504,21.491,37.537,20.004,34.589z M67.164,57.037    c0,9.091-0.001,18.183-0.003,27.274c0,0.438,0.009,0.874,0.003,1.312c-0.033,3.973-2.402,6.372-6.351,6.388    c-4.048,0.02-8.095,0.004-12.145,0.004c-6.633-0.002-13.267-0.009-19.898-0.004c-3.938,0.005-6.476-2.456-6.481-6.386    c-0.012-12.625-0.003-25.246-0.005-37.867V47.05h44.88C67.164,50.424,67.166,53.73,67.164,57.037z M67.467,36.908    c-0.791,2.099-1.617,4.186-2.364,6.3c-0.23,0.654-0.558,0.853-1.217,0.819c-1.051-0.053-2.105-0.014-3.341-0.014    c2.859-5.21,5.652-10.299,8.488-15.465c0.523,0.2,0.921,0.352,1.382,0.527C69.418,31.726,68.442,34.318,67.467,36.908z     M81.271,65.985c-1.438,3.368-4.234,4.831-7.771,5.01c-1.08,0.055-2.164,0.009-3.342,0.009V53.05    c3.727-0.237,7.376-0.211,9.952,3.059C82.48,59.118,82.749,62.519,81.271,65.985z"/></g></g>
    </symbol>
</svg>

