<?xml version="1.0" standalone="no"?>
<!DOCTYPE svg PUBLIC "-//W3C//DTD SVG 20010904//EN"
 "http://www.w3.org/TR/2001/REC-SVG-20010904/DTD/svg10.dtd">
<svg version="1.0" xmlns="http://www.w3.org/2000/svg"
 width="260.000000pt" height="260.000000pt" viewBox="0 0 260.000000 260.000000"
 preserveAspectRatio="xMidYMid meet">
<metadata>
Created by potrace 1.14, written by Peter Selinger 2001-2017
</metadata>
<g transform="translate(0.000000,260.000000) scale(0.100000,-0.100000)"
fill="#000000" stroke="none">
<path d="M1400 2091 c-36 -10 -78 -23 -93 -29 -16 -7 -33 -12 -38 -12 -5 0 -9
-5 -9 -10 0 -6 -10 -15 -22 -21 -87 -39 -244 -196 -315 -314 -7 -11 -30 -50
-52 -87 -23 -36 -41 -73 -41 -81 0 -8 -7 -20 -15 -27 -8 -7 -15 -22 -15 -34 0
-12 -7 -31 -15 -42 -8 -10 -15 -27 -15 -36 0 -10 -6 -37 -14 -60 -7 -24 -19
-96 -26 -161 -21 -185 5 -361 65 -452 76 -115 171 -185 276 -203 117 -21 325
-11 414 20 17 6 42 13 57 15 15 3 33 11 39 19 6 8 18 14 25 14 8 0 37 16 64
35 27 19 54 35 60 35 5 0 10 5 10 10 0 6 8 14 18 17 37 14 103 98 118 150 32
108 -34 182 -109 123 -14 -11 -30 -20 -35 -20 -5 0 -12 -7 -16 -15 -3 -8 -10
-15 -16 -15 -11 0 -62 -34 -88 -58 -7 -6 -19 -12 -26 -12 -8 0 -19 -7 -26 -15
-7 -8 -20 -15 -30 -15 -10 0 -23 -7 -30 -15 -7 -8 -22 -15 -34 -15 -11 0 -34
-8 -51 -17 -24 -13 -57 -17 -155 -17 -118 -1 -127 1 -165 25 -48 32 -65 51
-93 107 -19 38 -22 59 -22 182 0 99 4 151 15 177 8 21 19 56 24 78 10 43 26
92 47 140 7 17 15 37 19 45 3 8 16 33 29 55 14 22 32 54 41 72 9 17 25 39 36
49 10 9 19 23 19 30 0 14 106 124 119 124 4 0 18 9 31 20 13 11 29 20 37 20 8
0 21 7 29 15 11 10 37 15 85 15 81 0 118 -20 150 -82 23 -44 25 -125 4 -152
-8 -11 -15 -29 -15 -39 0 -22 -85 -127 -102 -127 -7 0 -20 -8 -31 -17 -16 -15
-39 -18 -129 -19 -63 -1 -114 -6 -120 -12 -6 -6 -11 -42 -12 -81 -1 -64 1 -73
26 -98 27 -26 32 -27 132 -27 85 0 108 3 124 17 10 9 26 17 34 17 9 0 21 7 28
15 7 8 18 15 24 15 13 0 81 63 137 127 43 50 90 144 115 231 15 55 16 71 5
135 -22 123 -79 219 -156 260 -88 48 -210 58 -325 28z"/>
</g>
</svg>
