<?xml version="1.0" standalone="no"?>
<!DOCTYPE svg PUBLIC "-//W3C//DTD SVG 20010904//EN"
 "http://www.w3.org/TR/2001/REC-SVG-20010904/DTD/svg10.dtd">
<svg version="1.0" xmlns="http://www.w3.org/2000/svg"
 width="152.000000pt" height="152.000000pt" viewBox="0 0 152.000000 152.000000"
 preserveAspectRatio="xMidYMid meet">
<metadata>
Created by potrace 1.14, written by Peter Selinger 2001-2017
</metadata>
<g transform="translate(0.000000,152.000000) scale(0.100000,-0.100000)"
fill="#000000" stroke="none">
<path d="M0 760 l0 -760 760 0 760 0 0 760 0 760 -760 0 -760 0 0 -760z m748
384 c12 -8 22 -10 22 -5 0 16 36 13 49 -3 9 -11 9 -20 2 -35 -18 -32 -13 -33
31 -1 48 35 54 36 68 10 9 -16 3 -26 -37 -64 -27 -24 -55 -57 -65 -73 l-16
-28 63 3 c79 4 121 -15 141 -65 30 -71 14 -151 -41 -206 -31 -31 -116 -60
-150 -51 -25 6 -29 0 -40 -71 -3 -22 -15 -56 -25 -75 l-19 -35 6 66 c4 49 2
73 -11 97 -20 38 -34 46 -110 62 -71 15 -111 49 -122 104 -19 106 79 201 174
168 l29 -10 -5 92 c-3 60 0 100 7 114 14 26 20 27 49 6z"/>
</g>
</svg>
