<?xml version="1.0" standalone="no"?>
<!DOCTYPE svg PUBLIC "-//W3C//DTD SVG 20010904//EN"
 "http://www.w3.org/TR/2001/REC-SVG-20010904/DTD/svg10.dtd">
<svg version="1.0" xmlns="http://www.w3.org/2000/svg"
 width="516.000000pt" height="516.000000pt" viewBox="0 0 516.000000 516.000000"
 preserveAspectRatio="xMidYMid meet">
<metadata>
Created by potrace 1.14, written by Peter Selinger 2001-2017
</metadata>
<g transform="translate(0.000000,516.000000) scale(0.100000,-0.100000)"
fill="#000000" stroke="none">
<path d="M2425 4549 c-82 -144 -162 -282 -176 -308 -14 -25 -86 -149 -159
-276 -73 -126 -141 -243 -150 -260 -47 -83 -556 -968 -785 -1365 -40 -69 -136
-237 -215 -375 -79 -137 -162 -281 -185 -320 -23 -38 -45 -77 -48 -85 -4 -8
-16 -30 -28 -49 -29 -48 -397 -686 -428 -743 -14 -26 -74 -131 -134 -233 -59
-102 -107 -188 -107 -190 0 -3 314 -2 698 1 383 4 772 7 864 8 135 1 170 4
181 16 8 8 94 159 192 335 98 176 186 332 196 347 11 15 19 29 19 32 0 2 47
87 103 188 57 100 119 210 137 243 18 33 52 94 75 135 24 41 53 93 65 115 12
22 85 153 163 290 77 138 151 270 165 295 109 196 235 416 241 423 6 6 242
-388 460 -767 20 -35 140 -241 429 -736 31 -52 74 -126 97 -165 72 -122 96
-165 93 -166 -7 -2 -497 -8 -1052 -13 -329 -2 -602 -8 -606 -13 -10 -10 -183
-424 -216 -515 l-13 -38 512 5 c282 2 843 7 1247 11 404 3 817 7 917 8 l182 1
-21 35 c-11 19 -31 53 -43 75 -13 22 -73 125 -134 229 -61 104 -111 191 -111
193 0 2 -14 24 -30 48 -16 24 -30 46 -30 49 0 4 -20 39 -44 79 -24 39 -123
209 -221 377 -98 168 -201 343 -228 390 -28 47 -60 103 -72 125 -20 36 -272
468 -295 505 -21 35 -75 127 -86 146 -9 16 -100 174 -194 334 -5 8 -55 94
-112 190 -57 96 -108 184 -114 195 -20 37 -297 510 -309 528 -13 19 -36 -17
-210 -333 -32 -58 -72 -130 -90 -160 -18 -30 -46 -80 -62 -110 -17 -30 -40
-72 -52 -92 -27 -48 -35 -62 -170 -303 -62 -110 -116 -207 -121 -215 -5 -8
-29 -51 -53 -95 -25 -44 -53 -96 -64 -115 -11 -19 -32 -57 -47 -85 -32 -57
-48 -85 -139 -245 -35 -63 -77 -137 -92 -165 -16 -27 -132 -234 -258 -460
-126 -225 -253 -451 -281 -502 l-51 -92 -213 -3 c-118 -2 -218 0 -224 3 -6 4
58 124 145 275 85 148 165 287 177 309 12 22 46 81 75 130 29 50 66 113 82
141 28 51 187 326 204 354 4 8 118 206 252 440 134 234 306 532 381 663 75
131 145 253 155 270 10 18 69 120 131 227 62 107 124 215 138 240 14 25 36 62
49 82 12 21 23 40 23 42 0 2 23 43 51 92 40 66 50 91 42 103 -5 9 -22 39 -37
66 -16 28 -32 55 -36 60 -4 6 -21 33 -37 61 -82 147 -199 344 -203 344 -3 0
-72 -118 -155 -261z"/>
</g>
</svg>
